<?xml version="1.0" encoding="utf-8"?>
<!-- Generator: Adobe Illustrator 24.2.1, SVG Export Plug-In . SVG Version: 6.00 Build 0)  -->
<svg version="1.1" id="Camada_2" xmlns="http://www.w3.org/2000/svg" xmlns:xlink="http://www.w3.org/1999/xlink" x="0px" y="0px"
	 viewBox="0 0 595.28 841.89" style="enable-background:new 0 0 595.28 841.89;" xml:space="preserve">
<style type="text/css">
	.st0{fill:#45B27A;}
</style>
<path class="st0" d="M190.53,401.75c0,0-0.75-67.89-1.82-97.36c-0.04-1.07-0.21-1.77-0.33-2.07c-0.51-1.33-1.06-2.62-1.63-3.86
	C159.78,239.63,74.13,277.9,82.1,281.75l11.57,22.71c0,0,54.43-28.28,62.57,4.29l0.43,10.28c0,0-64.29-6-82.29,30
	c0,0-9,39,23.57,52.72c32.58,13.71,56.58-8.57,61.72-21v21.86L190.53,401.75z M130.1,379.03c0,0-23.15,3.43-22.72-16.28
	c0.61-27.9,49.72-21.43,49.72-21.43S158.81,373.46,130.1,379.03z"/>
<path class="st0" d="M416.17,402.78c0,0-0.75-67.89-1.82-97.36c-0.04-1.07-0.49-2.35-0.33-2.07c0.52,0.91,0.97,2.44-1.63-3.86
	c-23.58-57.16-111.22-20.71-104.65-16.71l11.57,22.71c0,0,54.43-28.28,62.57,4.29l0.43,10.28c0,0-64.29-6-82.29,30
	c0,0-9,39,23.57,52.72c32.58,13.71,56.58-8.57,61.72-21v21.86L416.17,402.78z M355.74,380.06c0,0-23.15,3.43-22.72-16.28
	c0.61-27.9,49.72-21.43,49.72-21.43S384.45,374.49,355.74,380.06z"/>
<path class="st0" d="M255.86,364.71c3.86,13.29,18,10.29,18,10.29v26.57c0,0-17.52,3.16-26.57,0
	c-20.61-7.19-23.57-22.32-23.57-22.32l-1.29-163.23h33.86L255.86,364.71z"/>
<path class="st0" d="M483.43,294c16.29-36.43,62.79-27.43,62.79-27.43c29.31,8.89,32.79,37.91,32.54,39.43v96.43l-33.61,0.86
	c0,0,1.3-65.76-0.22-86.14c-0.91-12.21-7.38-17.44-10.15-18.91c-0.83-0.44-1.76-0.83-2.77-1.02c-38.88-7.62-45.92,35.35-46.33,33.22
	l-0.54,72h-33V268.71h31.29V294z"/>
</svg>
